<svg width="36" height="36" viewBox="0 0 36 36" fill="none" xmlns="http://www.w3.org/2000/svg">
<path fill-rule="evenodd" clip-rule="evenodd" d="M21.9197 14.2378H25.9088V18.9757H21.9197V14.2378Z" fill="#F78C0F"/>
<path fill-rule="evenodd" clip-rule="evenodd" d="M20.0891 9.50098H22.7557V11.9487H20.0891V9.50098Z" fill="#F78C0F"/>
<path fill-rule="evenodd" clip-rule="evenodd" d="M25.0759 9.50098H27.7404V11.9487H25.0759V9.50098Z" fill="#F78C0F"/>
<path d="M14.8318 8.18094L23.159 3.30821C23.629 3.03502 24.2531 3.05291 24.6942 3.32197L32.9981 8.18094H28.6132L23.916 5.4325L19.2166 8.18094H14.8318Z" fill="#F78C0F"/>
<path d="M14.6554 7.80522L22.9517 2.95175C23.5503 2.60287 24.3328 2.61801 24.9197 2.97722L27.4129 4.43401V3.1293C27.4129 2.90083 27.598 2.71572 27.8265 2.71572H29.9081C30.1366 2.71572 30.3196 2.90083 30.3196 3.1293V6.1351L33.2064 7.82449C33.5669 8.03506 33.4149 8.58902 32.9979 8.58902V8.59108H29.9549V18.9745C29.9549 19.2029 29.7718 19.388 29.5434 19.388H18.2874C18.059 19.388 17.8739 19.2029 17.8739 18.9745V8.59108H14.8309C14.3919 8.59108 14.2597 7.9924 14.6554 7.80522ZM28.238 4.91847L29.4945 5.65202V3.54149H28.238V4.91847ZM29.1291 8.59108H28.6123C28.5229 8.59108 28.441 8.56356 28.3722 8.5147L23.9151 5.90664L19.4249 8.5319C19.3602 8.57112 19.2887 8.58833 19.2185 8.58833V8.59039H18.6996V18.5602H21.5086V14.2359C21.5086 14.0074 21.6917 13.8244 21.9201 13.8244H25.9093C26.1378 13.8244 26.3229 14.0074 26.3229 14.2359V18.5602H29.1298V8.59108H29.1291ZM23.3632 3.66398L16.3524 7.766H19.1084L23.7004 5.07811C23.8249 5.00173 23.9873 4.99623 24.1215 5.07605L28.721 7.766H31.4771L29.7319 6.74411C29.7085 6.73447 29.6872 6.72071 29.6672 6.70695L27.6482 5.52678C27.6269 5.51508 27.6056 5.50339 27.5856 5.48962L24.5034 3.68738C24.3121 3.58003 24.1662 3.5236 23.924 3.52154C23.7279 3.51947 23.5331 3.56627 23.3632 3.66398ZM25.076 9.08654H27.7404C27.9689 9.08654 28.154 9.27165 28.154 9.50012V11.9478C28.154 12.1763 27.9689 12.3614 27.7404 12.3614H25.076C24.8475 12.3614 24.6624 12.1763 24.6624 11.9478V9.50012C24.6624 9.27234 24.8475 9.08654 25.076 9.08654ZM27.3289 9.91163H25.4875V11.5343H27.3289V9.91163ZM20.0883 9.08654H22.7549C22.9833 9.08654 23.1664 9.27165 23.1664 9.50012V11.9478C23.1664 12.1763 22.9833 12.3614 22.7549 12.3614H20.0883C19.8598 12.3614 19.6747 12.1763 19.6747 11.9478V9.50012C19.6747 9.27234 19.8598 9.08654 20.0883 9.08654ZM22.3413 9.91163H20.5019V11.5343H22.3413V9.91163ZM25.495 18.5609V14.6502H22.333V18.5609H25.495ZM10.2527 9.88272C12.9619 9.88272 15.1585 12.0813 15.1585 14.7906C15.1585 16.3162 14.4621 17.6911 13.3479 18.598C15.7241 19.3474 17.5711 20.9976 17.8147 23.5953L18.6377 21.8633C18.9536 21.1965 19.586 20.5875 20.356 20.5758L25.1351 20.5014C27.1383 20.4719 27.5361 23.2499 22.7652 24.311C22.6269 24.342 22.5739 24.3502 22.5216 24.4768L19.7284 31.3411C19.3424 32.2928 18.2929 32.7552 17.3158 32.738H4.40485C2.87167 32.738 1.61719 31.4856 1.61719 29.9524V24.194C1.61719 21.1084 4.26585 19.2394 7.04938 18.51C4.88793 16.6472 4.76131 13.3386 6.78238 11.3203C7.67009 10.4325 8.89704 9.88272 10.2527 9.88272ZM12.4121 19.1988C11.7604 19.5188 11.0268 19.6984 10.2527 19.6984C9.43311 19.6984 8.66308 19.4974 7.98594 19.1444C6.40597 19.4431 4.94711 20.0748 3.91902 21.0093C3.01205 21.8364 2.44433 22.9051 2.44433 24.1947V29.9531C2.44433 31.03 3.32584 31.9136 4.40485 31.9136H6.08461V25.6226C6.08461 25.3962 6.26972 25.2111 6.49818 25.2111C6.72664 25.2111 6.90969 25.3962 6.90969 25.6226V31.9136H15.444C14.771 31.1394 14.9665 29.9668 14.9795 28.8961C14.9816 28.6697 15.1688 28.4887 15.3952 28.4901C15.6236 28.4922 15.8046 28.6793 15.8026 28.9057C15.7984 29.1204 15.7909 29.3117 15.7847 29.4948C15.7475 30.474 15.7165 31.2468 16.4322 31.6679V31.6659C16.6978 31.82 17.0274 31.9136 17.3158 31.9136C17.4974 31.9198 17.6784 31.8957 17.8525 31.8489C18.3067 31.7278 18.7168 31.4395 18.9742 31.0101L21.7577 24.1692C21.9332 23.7385 22.2181 23.5919 22.589 23.5079C24.2722 23.1336 25.195 22.5562 25.5659 22.0353C25.8742 21.6004 25.7221 21.3176 25.1468 21.3252L20.3677 21.3974C19.9424 21.405 19.5584 21.8481 19.3843 22.2149L17.8161 25.5173C17.6268 25.9564 17.0185 25.8043 17.0185 25.3673V24.1947C17.0178 21.3816 14.9754 19.7823 12.4121 19.1988ZM13.1381 11.9038C11.5443 10.3101 8.95967 10.3101 7.36593 11.9038C5.77219 13.4996 5.77219 16.0843 7.36593 17.678C8.95967 19.2717 11.5443 19.2717 13.1381 17.678C14.7318 16.0836 14.7318 13.4989 13.1381 11.9038Z" fill="#737373"/>
</svg>
