<svg width="36" height="35" viewBox="0 0 36 35" fill="none" xmlns="http://www.w3.org/2000/svg">
<path fill-rule="evenodd" clip-rule="evenodd" d="M18.064 3.55469L25.5502 8.70488L33.0363 13.8537H28.1813L23.123 10.4569L18.064 7.06016L13.0078 10.4569L7.94883 13.8537H3.09375L10.5778 8.70488L18.064 3.55469Z" fill="#F78C0F"/>
<path fill-rule="evenodd" clip-rule="evenodd" d="M24.1459 3.48511H29.0847C29.4573 3.48511 29.7625 3.78179 29.7625 4.14409V4.86323C29.7625 5.22554 29.4573 5.52017 29.0847 5.52017H24.1459C23.7733 5.52017 23.4702 5.22554 23.4702 4.86323V4.14409C23.4702 3.78179 23.7733 3.48511 24.1459 3.48511Z" fill="#F78C0F"/>
<path fill-rule="evenodd" clip-rule="evenodd" d="M10.2842 14.3384H14.3124V17.1944H10.2842V14.3384Z" fill="#F78C0F"/>
<path fill-rule="evenodd" clip-rule="evenodd" d="M21.8203 14.3384H25.8485V17.1944H21.8203V14.3384Z" fill="#F78C0F"/>
<path fill-rule="evenodd" clip-rule="evenodd" d="M20.1206 22.5723C20.8279 22.5723 21.4045 23.2812 21.4045 24.1555C21.4045 25.0291 20.8286 25.7387 20.1206 25.7387C19.4111 25.7387 18.8367 25.0298 18.8367 24.1555C18.8367 23.2818 19.4111 22.5723 20.1206 22.5723Z" fill="#F78C0F"/>
<path fill-rule="evenodd" clip-rule="evenodd" d="M3.63436 29.269C2.93896 29.269 2.37646 28.7229 2.37646 28.0461C2.37646 27.558 2.66967 27.1376 3.09576 26.9394C2.39826 25.9338 3.48037 24.6719 4.61662 25.1258C4.41342 23.9418 5.8942 23.2288 6.74709 24.056C6.85678 23.4899 7.36865 23.062 7.98248 23.062C8.5724 23.062 9.06881 23.4571 9.20451 23.9924C10.0454 23.4168 11.2274 24.0231 11.1838 25.0465C12.204 24.9228 12.9219 25.9707 12.4515 26.8334C13.2046 26.7384 13.8726 27.3085 13.8726 28.0468C13.8726 28.7229 13.3108 29.2697 12.6147 29.2697C9.44639 29.269 6.43701 29.269 3.63436 29.269Z" fill="#F78C0F"/>
<path fill-rule="evenodd" clip-rule="evenodd" d="M32.4964 29.2686C33.1897 29.2686 33.7543 28.7224 33.7543 28.0457C33.7543 27.5576 33.459 27.1372 33.035 26.939C33.7325 25.9334 32.6483 24.6715 31.512 25.1254C31.7174 23.9414 30.2366 23.2284 29.3837 24.0556C29.1327 22.7745 27.2469 22.728 26.9263 23.9913C26.0853 23.4157 24.9034 24.0221 24.947 25.0454C23.9267 24.9217 23.2067 25.9696 23.6792 26.8323C22.9262 26.7373 22.2561 27.3074 22.2561 28.0457C22.2561 28.7218 22.82 29.2686 23.5154 29.2686H32.4964Z" fill="#F78C0F"/>
<path d="M20.8333 28.8095H21.9533C21.5589 28.048 21.8099 27.1142 22.5411 26.6357V19.9973C22.5411 19.7218 22.3077 19.4956 22.0251 19.4956H14.1107C13.8259 19.4956 13.5925 19.7225 13.5925 19.9973V26.6357C14.3258 27.1142 14.5747 28.048 14.1824 28.8095H20.8333ZM33.9395 29.0112C34.2088 29.2033 34.3797 29.5088 34.3797 29.85V31.038C34.3797 31.6116 33.8973 32.0805 33.3074 32.0805H2.82553C2.23561 32.0805 1.75537 31.6116 1.75537 31.038V29.85C1.75537 29.5088 1.92482 29.2026 2.19412 29.0112C1.69209 28.3023 1.81514 27.3466 2.47326 26.7772C2.10271 25.6862 2.98584 24.5466 4.14951 24.5528C4.37451 23.5335 5.5424 22.9484 6.52748 23.3456C6.73279 23.0455 7.03373 22.8144 7.38248 22.6886V14.3324H3.09623C2.62584 14.3324 2.38889 13.724 2.85295 13.4369L17.7859 3.16519C17.961 3.04282 18.1923 3.05308 18.3583 3.17134L24.294 7.25444V5.998H24.1485C23.5044 5.998 22.9806 5.48804 22.9806 4.86255V4.14409C22.9806 3.51792 23.5051 3.00659 24.1485 3.00659H29.0872C29.7327 3.00659 30.2572 3.51792 30.2572 4.14409V4.86323C30.2572 5.4894 29.7327 5.99868 29.0872 5.99868H28.9417V10.4537L33.3222 13.4663C33.711 13.7335 33.5134 14.3303 33.0388 14.3303V14.3324H28.754V22.6934C29.1006 22.8117 29.4058 23.0345 29.6132 23.3428C30.5976 22.9498 31.7619 23.5349 31.9869 24.5521C33.1506 24.5466 34.0337 25.6855 33.6632 26.7765C34.3185 27.3466 34.4422 28.3016 33.9395 29.0112ZM7.79029 29.7666H2.82553C2.77982 29.7666 2.73975 29.8055 2.73975 29.85V31.038C2.73975 31.0845 2.77982 31.1235 2.82553 31.1235H33.3081C33.3559 31.1235 33.396 31.0845 33.396 31.038V29.85C33.396 29.8055 33.3559 29.7666 33.3081 29.7666L7.87396 29.772C7.84584 29.7727 7.81842 29.7707 7.79029 29.7666ZM32.4988 28.7904C33.3137 28.7904 33.557 27.7069 32.8279 27.3719C32.5565 27.2482 32.4629 26.9125 32.6303 26.6726H32.6282C33.055 26.0567 32.3891 25.2931 31.7015 25.5659C31.3429 25.7094 30.9681 25.4052 31.03 25.0463C31.1572 24.3122 30.2446 23.8972 29.7327 24.3935C29.4536 24.6628 28.9776 24.5172 28.9037 24.1433C28.7526 23.3661 27.6001 23.3374 27.4047 24.1043C27.321 24.4338 26.9265 24.5733 26.6453 24.3812C26.1348 24.0326 25.4134 24.399 25.4394 25.0265C25.4514 25.3191 25.1905 25.5536 24.8896 25.5187C24.2617 25.4449 23.8314 26.0847 24.1161 26.6077C24.2856 26.9194 24.0641 27.3617 23.5916 27.3036C23.1873 27.253 22.7507 27.577 22.7507 28.0459C22.7507 28.4609 23.0973 28.7904 23.5178 28.7904H32.4988ZM23.5255 25.0874C23.7864 24.818 24.1274 24.6376 24.5064 24.5794C24.7412 23.6532 25.7439 23.0988 26.679 23.3544C26.9301 22.973 27.3266 22.7208 27.7696 22.6298V14.156L18.0672 7.63931L8.36685 14.156V22.6237C8.81334 22.7208 9.20217 22.986 9.44896 23.3558C10.3855 23.096 11.3924 23.6504 11.6272 24.5788C12.0076 24.6369 12.3487 24.8173 12.6081 25.0867V19.9959C12.6081 19.192 13.2838 18.5372 14.1107 18.5372H22.0251C22.8519 18.5372 23.5255 19.192 23.5255 19.9959V25.0874ZM3.09412 28.573C3.23334 28.707 3.42529 28.7897 3.63623 28.7897H12.6172C13.4202 28.7897 13.7176 27.6891 12.8901 27.348C12.6151 27.2359 12.4576 27.3774 12.2221 27.255C11.983 27.1313 11.8909 26.8421 12.0189 26.6077C12.3037 26.0847 11.8733 25.4449 11.2454 25.5187C10.9445 25.5536 10.6837 25.3191 10.6956 25.0265C10.7216 24.4003 10.0023 24.0326 9.48764 24.3812C9.2085 24.5733 8.81193 24.4338 8.72826 24.1043C8.59256 23.5698 7.9267 23.364 7.49639 23.7092C7.16732 23.9745 7.30514 24.1857 7.0956 24.3915C6.90435 24.5774 6.59357 24.5794 6.40232 24.3935C5.88975 23.8972 4.97709 24.3122 5.10295 25.0463C5.16482 25.4045 4.79217 25.7087 4.43357 25.5659C3.74381 25.2911 3.07795 26.056 3.50475 26.6726C3.66998 26.9125 3.57857 27.2482 3.30717 27.3719C2.82904 27.5907 2.72006 28.2086 3.09412 28.573ZM20.1217 22.0932C21.6883 22.0932 22.4694 24.2691 21.4154 25.5693C20.7158 26.4313 19.5261 26.4313 18.8265 25.5693C17.7719 24.2691 18.553 22.0932 20.1217 22.0932ZM20.642 23.3312C20.1161 22.6804 19.3307 23.2437 19.3307 24.1549C19.3307 25.0655 20.1161 25.6274 20.642 24.9787C21.0027 24.535 21.0027 23.7749 20.642 23.3312ZM21.8219 13.86H25.8501C26.1215 13.86 26.3422 14.0753 26.3422 14.3385V17.1946C26.3422 17.4578 26.1208 17.6731 25.8501 17.6731H21.8219C21.5504 17.6731 21.3297 17.4578 21.3297 17.1946V14.3385C21.3297 14.0747 21.5504 13.86 21.8219 13.86ZM25.3572 14.817H22.3133V16.7161H25.3572V14.817ZM10.2857 13.86H14.3139C14.5853 13.86 14.804 14.0753 14.804 14.3385V17.1946C14.804 17.4578 14.5846 17.6731 14.3139 17.6731H10.2857C10.0143 17.6731 9.7935 17.4578 9.7935 17.1946V14.3385C9.7935 14.0747 10.0143 13.86 10.2857 13.86ZM13.821 14.817H10.7772V16.7161H13.821V14.817ZM27.9587 5.998H25.2777V7.93188L27.9587 9.77485V5.998ZM29.0865 3.96362H24.1478C24.0479 3.96362 23.9643 4.04497 23.9643 4.14409V4.86323C23.9643 4.9603 24.0479 5.04165 24.1478 5.04165H24.692C24.7222 5.03618 24.7539 5.03413 24.7855 5.03413H28.4488C28.4826 5.03413 28.5149 5.03618 28.5444 5.04165H29.0865C29.1885 5.04165 29.2722 4.9603 29.2722 4.86323V4.14409C29.2722 4.04497 29.1885 3.96362 29.0865 3.96362ZM25.27 9.09263L18.0665 4.13794L4.63889 13.3753H7.80014L17.7796 6.67271C17.9547 6.55444 18.1761 6.55239 18.3519 6.67271L28.3356 13.3753H31.4969L25.27 9.09263Z" fill="#737373"/>
</svg>
