<svg width="36" height="35" viewBox="0 0 36 35" fill="none" xmlns="http://www.w3.org/2000/svg">
<path fill-rule="evenodd" clip-rule="evenodd" d="M7.42955 4.0481C8.21072 4.0481 8.84494 4.66401 8.84494 5.42554C8.84494 6.18501 8.21143 6.80161 7.42955 6.80161C6.64768 6.80161 6.01416 6.18569 6.01416 5.42554C6.01416 4.66401 6.64838 4.0481 7.42955 4.0481Z" fill="#F78C0F"/>
<path fill-rule="evenodd" clip-rule="evenodd" d="M9.70697 8.50293C9.06291 9.03613 8.22619 9.35742 7.31354 9.35742C6.49861 9.35742 5.74486 9.10176 5.13525 8.66768C5.169 7.72227 6.18783 6.95459 7.42955 6.95459C8.59674 6.95459 9.56916 7.63271 9.70697 8.50293Z" fill="#F78C0F"/>
<path fill-rule="evenodd" clip-rule="evenodd" d="M18.2577 4.0481C19.0388 4.0481 19.6731 4.66401 19.6731 5.42554C19.6731 6.18501 19.0396 6.80161 18.2577 6.80161C17.4758 6.80161 16.8423 6.18569 16.8423 5.42554C16.843 4.66401 17.4765 4.0481 18.2577 4.0481Z" fill="#F78C0F"/>
<path fill-rule="evenodd" clip-rule="evenodd" d="M20.5348 8.50293C19.8893 9.03613 19.054 9.35742 18.1392 9.35742C17.3257 9.35742 16.5727 9.10176 15.9609 8.66768C15.9947 7.72227 17.0156 6.95459 18.2573 6.95459C19.4245 6.95459 20.3955 7.63271 20.5348 8.50293Z" fill="#F78C0F"/>
<path fill-rule="evenodd" clip-rule="evenodd" d="M28.6263 4.0481C29.4096 4.0481 30.0431 4.66401 30.0431 5.42554C30.0431 6.18501 29.4096 6.80161 28.6263 6.80161C27.8452 6.80161 27.2109 6.18569 27.2109 5.42554C27.2109 4.66401 27.8452 4.0481 28.6263 4.0481Z" fill="#F78C0F"/>
<path fill-rule="evenodd" clip-rule="evenodd" d="M30.9083 8.50293C30.2628 9.03613 29.4254 9.35742 28.5128 9.35742C27.6978 9.35742 26.9462 9.10176 26.3345 8.66768C26.3682 7.72227 27.3871 6.95459 28.6288 6.95459C29.7981 6.95459 30.7684 7.63271 30.9083 8.50293Z" fill="#F78C0F"/>
<path fill-rule="evenodd" clip-rule="evenodd" d="M11.5851 16.6354C11.6406 16.969 11.5612 16.9321 11.9057 17.6294C12.2502 18.3267 13.4308 19.0362 14.477 19.1798C15.8861 16.8528 11.4276 12.7793 7.94148 15.3585C6.69554 16.2786 6.15765 17.3895 6.29546 18.6992C8.45405 19.3322 10.9157 17.6253 11.5851 16.6354Z" fill="#F78C0F"/>
<path fill-rule="evenodd" clip-rule="evenodd" d="M17.0364 23.8472H27.7134C28.0804 23.8472 28.3293 24.1397 28.2632 24.4979L26.8542 32.28C26.7881 32.6382 26.4358 32.9308 26.0667 32.9308H15.3918C15.0234 32.9308 14.7759 32.6382 14.842 32.28L16.251 24.4979C16.315 24.1397 16.6694 23.8472 17.0364 23.8472Z" fill="#F78C0F"/>
<path d="M21.7733 26.6767C23.3582 26.6767 24.0212 28.56 22.7879 29.6476C21.5582 30.7311 19.7026 29.9033 19.8643 28.3611C19.9635 27.4287 20.8122 26.6767 21.7733 26.6767ZM21.8549 27.6379C21.0955 27.562 20.5457 28.4807 21.002 28.975C21.4562 29.4651 22.4448 29.0331 22.4448 28.2791C22.4448 27.9339 22.2036 27.6727 21.8549 27.6379ZM17.125 23.388H27.8019C28.4734 23.388 28.9536 23.9499 28.8362 24.5993L27.4272 32.3813C27.3217 32.9624 26.7634 33.4279 26.1552 33.4279C18.7091 33.4279 11.2644 33.4279 3.81833 33.4279C3.54552 33.4279 3.32614 33.2146 3.32614 32.9494V28.8916C3.32614 27.4943 4.40614 25.5509 5.89114 24.9308V21.4739C5.50864 21.1485 5.2513 20.6447 5.2513 20.1505C5.2513 19.8907 5.23513 19.6699 5.32302 19.4238C5.42286 19.1428 5.62396 18.922 5.89114 18.8038V18.7279C5.81942 17.9971 5.93685 17.3211 6.24411 16.6949C6.54927 16.0708 7.04567 15.5054 7.73122 14.9955C11.3903 12.2905 16.0822 16.1193 15.2216 18.9214C15.5029 19.1346 15.64 19.4717 15.64 19.8264C15.64 20.3261 15.6519 20.6597 15.3229 21.1362C15.2448 21.2469 15.1576 21.3474 15.0578 21.4384V24.9302C15.2849 25.0252 15.4979 25.1469 15.6997 25.2925L15.8551 24.4339C15.9613 23.8535 16.5175 23.388 17.125 23.388ZM14.4285 32.4702L14.4468 32.2179L15.5015 26.393C15.1267 26.013 14.6282 25.6842 14.0783 25.6842H12.5912V27.5039C12.5912 28.3796 11.8656 29.0967 10.9691 29.1103V32.4702H14.4285ZM27.8019 24.3457H17.125C16.9935 24.3457 16.8479 24.4694 16.824 24.5993L15.4108 32.4121C15.4108 32.4606 15.4304 32.4702 15.4804 32.4702H26.1552C26.2867 32.4702 26.4343 32.3465 26.4583 32.2179L27.8694 24.4031C27.8701 24.3573 27.8497 24.3457 27.8019 24.3457ZM9.98403 32.4702V29.1103C9.08544 29.0967 8.35981 28.3796 8.35981 27.5039V25.6842H6.87481C5.4995 25.6842 4.31192 27.6878 4.31192 28.8909V32.4702H9.98403ZM12.1581 16.5807C12.22 16.9506 12.1398 16.8405 12.4372 17.4414C12.7065 17.9862 13.6248 18.4818 14.2787 18.6541C14.8665 16.738 11.2412 13.6003 8.32747 15.755C7.4106 16.4351 6.85091 17.2609 6.85442 18.3342C7.55192 18.4524 8.28177 18.3109 8.93497 18.0573C10.0234 17.6328 10.9199 16.9007 11.2651 16.3907C11.5126 16.027 12.0906 16.1528 12.1581 16.5807ZM11.5527 17.8543C11.5105 17.7688 11.4747 17.6916 11.443 17.6239C10.5381 18.4381 9.21271 19.1545 7.87747 19.3042V20.953C7.87747 22.3093 9.0313 23.9718 10.4762 23.9718C11.9211 23.9718 13.0736 22.3113 13.0736 20.953V19.2112C12.4316 18.8851 11.8213 18.3964 11.5527 17.8543ZM6.8945 19.8497C6.79466 19.8169 6.3981 19.6713 6.32638 19.6713C6.24481 19.6713 6.23638 19.782 6.23638 19.8517C6.23638 20.1464 6.20614 20.3282 6.39177 20.5921C6.54716 20.8149 6.65896 20.8423 6.8938 20.9216V19.8497H6.8945ZM7.04216 21.9811L6.87692 21.9271V24.7271H8.35981V24.0798C7.73192 23.5295 7.26716 22.7741 7.04216 21.9811ZM14.0734 21.9217L13.9082 21.9798C13.6853 22.772 13.2205 23.5281 12.5905 24.0804V24.7278H14.0734V21.9217ZM14.5199 19.6836L14.0572 19.8442V20.914C14.2625 20.8423 14.3624 20.8115 14.5079 20.6023C14.6915 20.3371 14.6556 20.1395 14.6556 19.8271C14.6556 19.7786 14.6458 19.6993 14.6176 19.674L14.5199 19.6836ZM11.6083 24.6998C10.8686 25.006 10.0832 25.006 9.34419 24.6998V27.5039C9.34419 27.8607 9.64513 28.1533 10.0122 28.1533H10.9389C11.3059 28.1533 11.6083 27.8607 11.6083 27.5039V24.6998ZM17.4322 10.7463C17.4322 10.4824 17.6516 10.2677 17.9244 10.2677C18.1958 10.2677 18.4166 10.4831 18.4166 10.7463V12.3103H26.9371C26.9828 12.3103 27.025 12.3062 27.0587 12.2987V10.6383C27.0587 10.3744 27.2802 10.1597 27.5509 10.1597C27.8237 10.1597 28.0431 10.3751 28.0431 10.6383V12.4484C28.0431 12.9816 27.4693 13.268 26.9371 13.268H18.4166V20.5073C18.4166 20.7712 18.1951 20.9858 17.9244 20.9858C17.6516 20.9858 17.4322 20.7705 17.4322 20.5073V13.268H8.74583C8.21356 13.268 7.63981 12.9809 7.63981 12.4484V10.6383C7.63981 10.3744 7.85919 10.1597 8.132 10.1597C8.40341 10.1597 8.62208 10.3751 8.62208 10.6383V12.2987C8.65794 12.3062 8.69802 12.3103 8.74583 12.3103H17.4315V10.7463H17.4322ZM28.6555 9.85486C27.7429 9.86443 26.8597 9.58757 26.132 9.07009C26.054 9.01609 25.9984 8.94021 25.9647 8.85886C25.8908 8.79666 25.817 8.73103 25.7474 8.6613C24.1112 7.07263 24.1112 4.49343 25.7474 2.90203C27.3836 1.3113 30.0365 1.3113 31.6726 2.90203C33.3067 4.49275 33.3067 7.07195 31.6726 8.6613C30.8999 9.41326 29.8311 9.86853 28.6555 9.85486ZM26.2178 7.74255C26.4829 7.31052 26.9033 6.97898 27.3836 6.76775C26.1601 5.59334 27.025 3.58767 28.7167 3.58767C30.4084 3.58767 31.2782 5.59128 30.0519 6.76775C30.5279 6.97898 30.9428 7.30642 31.21 7.73093C32.2323 6.49294 32.1311 4.70193 30.9751 3.5781C29.7236 2.3613 27.6943 2.3613 26.4428 3.5781C25.2847 4.70671 25.1856 6.50457 26.2178 7.74255ZM29.7074 8.70779C29.9683 8.61482 30.2115 8.49109 30.433 8.34138C30.0006 7.41101 28.3581 7.14988 27.4173 7.8533C27.2099 8.00642 27.0566 8.19646 26.975 8.40359C27.7984 8.91902 28.7772 9.04138 29.7074 8.70779ZM29.3706 4.80925C28.7905 4.24529 27.7942 4.64656 27.7942 5.44294C27.7942 6.24138 28.7905 6.64265 29.3706 6.07869C29.7313 5.72732 29.7313 5.15994 29.3706 4.80925ZM18.283 9.85486C17.3704 9.86443 16.4893 9.58757 15.7616 9.07009C15.6822 9.01609 15.6259 8.94021 15.5943 8.85886C15.5183 8.79666 15.4466 8.73103 15.3749 8.6613C13.7408 7.07263 13.7408 4.49343 15.3749 2.90203C17.0111 1.3113 19.664 1.3113 21.3001 2.90203C22.9363 4.49275 22.9363 7.07195 21.3001 8.6613C20.5274 9.41326 19.4608 9.86853 18.283 9.85486ZM15.8474 7.74255C16.1125 7.31052 16.5308 6.97898 17.0111 6.76775C15.7876 5.59334 16.6546 3.58767 18.3463 3.58767C20.0366 3.58767 20.9057 5.59128 19.6794 6.76775C20.1554 6.97898 20.5724 7.30642 20.8375 7.73093C21.8619 6.49294 21.7586 4.70193 20.604 3.5781C19.3525 2.3613 17.3233 2.3613 16.0717 3.5781C14.9129 4.70671 14.8152 6.50457 15.8474 7.74255ZM19.3377 8.70779C19.5972 8.61482 19.8418 8.49109 20.0633 8.34138C19.6288 7.41101 17.9863 7.14988 17.0455 7.8533C16.8402 8.00642 16.6848 8.19646 16.6054 8.40359C17.4259 8.91902 18.4047 9.04138 19.3377 8.70779ZM18.9988 4.80925C18.4187 4.24529 17.4224 4.64656 17.4224 5.44294C17.4224 6.24138 18.4187 6.64265 18.9988 6.07869C19.3595 5.72732 19.3595 5.15994 18.9988 4.80925ZM7.4563 9.85486C6.54364 9.86443 5.66052 9.58757 4.93278 9.07009C4.85474 9.01609 4.79919 8.94021 4.76544 8.85886C4.69161 8.79666 4.61778 8.73103 4.54817 8.6613C2.912 7.07263 2.912 4.49343 4.54817 2.90203C6.18435 1.3113 8.83513 1.3113 10.472 2.90203C12.1089 4.49275 12.1082 7.07195 10.472 8.6613C9.70067 9.41326 8.63263 9.86853 7.4563 9.85486ZM5.01927 7.74255C5.28435 7.31052 5.70481 6.97898 6.18294 6.76775C4.9595 5.59334 5.82645 3.58767 7.51817 3.58767C9.20989 3.58767 10.0797 5.59128 8.85341 6.76775C9.32942 6.97898 9.74427 7.30642 10.0093 7.73093C11.0338 6.49294 10.9318 4.70193 9.77591 3.5781C8.52435 2.3613 6.49513 2.3613 5.24356 3.5781C4.08411 4.70671 3.98638 6.50457 5.01927 7.74255ZM8.50888 8.70779C8.76974 8.61482 9.01302 8.49109 9.2345 8.34138C8.80208 7.41101 7.15958 7.14988 6.2188 7.8533C6.01138 8.00642 5.8581 8.19646 5.77653 8.40359C6.59989 8.91902 7.57794 9.04138 8.50888 8.70779ZM8.17208 4.80925C7.592 4.24529 6.59567 4.64656 6.59567 5.44294C6.59567 6.24138 7.592 6.64265 8.17208 6.07869C8.53278 5.72732 8.53278 5.15994 8.17208 4.80925Z" fill="#737373"/>
</svg>
